<svg width="169" height="46" viewBox="0 0 169 46" fill="none" xmlns="http://www.w3.org/2000/svg">
<path fill-rule="evenodd" clip-rule="evenodd" d="M32.5779 18.7342H42.8064C48.1617 18.7342 52.2317 16.5442 52.2317 9.57819C52.2317 2.11089 48.4563 0.316622 43.101 0.316622H32.5779V18.7342ZM39.7539 4.59121H41.5212C44.0917 4.59121 44.7343 6.22714 44.7343 9.39349C44.7343 12.4543 44.1453 14.143 41.548 14.143H39.7539V4.59121ZM54.4389 0.316622V18.7342H61.6149V0.316622H54.4389ZM82.4233 9.39349H76.2647V14.3013C75.8363 14.4597 75.2472 14.4597 74.7385 14.4597C71.8734 14.4597 70.8291 12.2432 70.8291 9.71012C70.8291 6.35907 73.1855 4.59121 76.7467 4.59121C78.7549 4.59121 80.6561 5.06614 81.6736 5.64664V0.686041C79.8795 0.263852 78.1926 0 74.6849 0C68.687 0 63.4924 3.08717 63.4924 9.26157C63.4924 15.8317 68.4728 19.0508 74.6849 19.0508C77.6303 19.0508 79.9599 18.7606 82.4233 18.0482V9.39349ZM85.1898 0.316622V18.7342H92.3659V0.316622H85.1898ZM113.817 0.316622H94.0024V5.75218H100.322V18.7342H107.498V5.75218H113.817V0.316622ZM113.677 18.7342H120.826L121.977 14.7499H128.029L129.261 18.7342H136.785L130.117 0.316622H120.237L113.677 18.7342ZM125.03 4.27456H125.083L127.118 10.317H122.968L125.03 4.27456ZM137.722 18.7342H153.708V13.2987H144.898V0.316622H137.722V18.7342ZM32.5779 46H39.7539V40.6964H44.895C48.6437 40.6964 51.7765 38.7174 51.7765 33.9151C51.7765 28.9545 47.8404 27.5824 44.9218 27.5824H32.5779V46ZM39.5665 31.857H41.1195C42.86 31.857 44.6005 32.0945 44.6005 34.047C44.6005 36.1052 42.86 36.4218 41.1463 36.4218H39.5665V31.857ZM65.8582 33.9415H61.0652V27.5824H53.8891V46H61.0652V39.3771H65.8582V46H73.0342V27.5824H65.8582V33.9415ZM73.9829 46H81.1322L82.2836 42.0157H88.335L89.5667 46H97.0909L90.4236 27.5824H80.5431L73.9829 46ZM85.3361 31.5403H85.3896L87.4246 37.5828H83.2743L85.3361 31.5403ZM97.7873 46H104.963V39.7465H106.57C107.454 39.7465 108.176 39.852 108.605 40.6964C108.974 41.3913 109.144 42.7814 109.298 44.0469C109.39 44.7995 109.476 45.508 109.596 46H117.066C116.743 45.2254 116.574 44.254 116.398 43.243C116.166 41.9123 115.923 40.513 115.299 39.4034C114.63 38.4272 113.692 37.6883 112.139 37.4245V37.3717C114.817 36.7384 116.611 35.3136 116.611 32.4902C116.611 28.9545 113.853 27.5824 109.381 27.5824H97.7873V46ZM104.642 31.6987H106.623C108.069 31.6987 109.435 31.9361 109.435 33.5985C109.435 35.4719 107.989 35.6302 106.516 35.6302H104.642V31.6987ZM118.869 46H124.974L125.054 31.5403H125.161L128.723 46H134.694L138.362 31.5403H138.416L138.523 46H144.949V27.5824H134.372L131.962 37.6619H131.909L129.472 27.5824H118.869V46ZM145.892 46H153.041L154.193 42.0157H160.244L161.476 46H169L162.333 27.5824H152.452L145.892 46ZM157.245 31.5403H157.299L159.334 37.5828H155.183L157.245 31.5403ZM24.9913 2.02293H1.78509V44.2409H24.9913V2.02293ZM1.78509 0.263852H0V2.02293V44.2409V46H1.78509H24.9913H26.7763V44.2409V2.02293V0.263852H24.9913H1.78509ZM15.4232 36.698H15.4517V32.6732H17.8509V40.4413H15.0519C14.7377 39.8221 14.0522 38.5274 13.4239 37.5705C12.9812 36.9372 12.4242 36.2195 11.5817 36.2195C10.5535 36.2195 10.1964 37.1342 10.1964 38.0489C10.1964 38.7948 10.325 39.5547 10.6248 40.2443H8.02577C7.84011 39.217 7.71159 38.1897 7.71159 37.1342C7.71159 34.9952 8.41134 32.6732 10.9819 32.6732C13.2525 32.6732 14.5235 34.9389 15.4232 36.698ZM18.0223 27.1736C18.0223 30.34 15.9087 32.0709 12.8669 32.0709C9.93938 32.0709 7.71159 30.4103 7.71159 27.1736C7.71159 24.1762 9.75372 22.3045 12.8669 22.3045C15.9516 22.3045 18.0223 23.9932 18.0223 27.1736ZM9.93938 27.1736C9.93938 28.3839 11.2675 28.3839 12.8669 28.3839C14.3807 28.3839 15.7945 28.3839 15.7945 27.1736C15.7945 25.9915 14.3807 25.9915 12.8669 25.9915C11.2675 25.9915 9.93938 25.9915 9.93938 27.1736ZM11.3817 18.9801L12.9812 21.1613L10.3821 22.1605L7.88296 18.4594V15.4337H17.8509V18.9801H11.3817ZM18.0223 9.86757C18.0223 11.9222 17.3939 14.4975 15.1947 14.4975C13.8095 14.4975 13.0669 13.7657 12.7812 12.5273H12.7527C12.3671 13.7094 11.7387 14.3286 10.4392 14.3286C8.2971 14.3286 7.71159 11.9222 7.71159 9.86757C7.71159 7.74258 8.2971 5.44874 10.4392 5.44874C11.7387 5.44874 12.3671 6.15239 12.767 7.22191H12.7812C13.0669 6.08201 13.8095 5.2095 15.1947 5.2095C17.3939 5.2095 18.0223 7.74258 18.0223 9.86757ZM15.9658 9.86757C15.9658 9.06541 15.3518 8.75582 14.6235 8.75582C13.938 8.75582 13.3525 9.06541 13.3525 9.86757C13.3525 10.6697 13.938 10.9512 14.652 10.9512C15.3518 10.9512 15.9658 10.6697 15.9658 9.86757ZM9.59664 9.86757C9.59664 10.5431 10.0965 10.923 10.6962 10.923C11.3817 10.923 11.853 10.5431 11.8673 9.86757C11.8816 9.2343 11.3817 8.85433 10.7248 8.85433C10.0965 8.85433 9.59664 9.2343 9.59664 9.86757Z" fill="white"/>
</svg>
