<svg id="Слой_1" data-name="Слой 1" xmlns="http://www.w3.org/2000/svg" viewBox="0 0 180.05 52.92"><defs><style>.cls-1{fill:#00a3da;}.cls-2{fill:#00dca3;}.cls-3{fill:#fff;}</style></defs><title>mzlogo</title><path class="cls-1" d="M51.05,13.45h8.78v3.32h.07C61,14.08,63.56,13,66.47,13c2.59,0,5.28,1,6,3.29h.07c.63-2.21,3.88-3.29,6.17-3.29,6.79,0,6.79,4.4,6.79,8.16V32.68h-9.3V21.6c0-1.1,0-2.62-1.66-2.62s-1.63,1.52-1.63,2.62V32.68h-9.3V21.6c0-1.1,0-2.62-1.62-2.62s-1.66,1.52-1.66,2.62V32.68h-9.3Z" transform="translate(-2.07 -1.93)"/><path class="cls-1" d="M96.89,25.3c.15,2.39,2.4,2.95,5.13,2.95A14.35,14.35,0,0,0,108.33,27v5a29.25,29.25,0,0,1-8.67,1.11c-7.79,0-11.92-3.77-11.92-10.41,0-6.46,4.13-9.71,11.92-9.71,7.46,0,10.08,4.66,10.08,11.15V25.3Zm4.8-4.06c0-1.48-.22-3.81-2.32-3.81s-2.63,2.29-2.51,3.81Z" transform="translate(-2.07 -1.93)"/><path class="cls-1" d="M125.87,32.68V29.17h-.07c-1.3,2.88-3.18,3.95-6.21,3.95-6.16,0-8.45-4.8-8.45-10.37,0-5.21,2.4-9.75,8.2-9.75a6.5,6.5,0,0,1,5.79,2.92h.07V5h9.31V32.68ZM123.1,18.76c-1.95,0-2.29,2-2.29,4s.34,4.17,2.36,4.17,2.29-2.14,2.29-4C125.46,20.76,125.17,18.76,123.1,18.76Z" transform="translate(-2.07 -1.93)"/><path d="M51.05,34.7H70.5v7.71l-9.19,5.91v.07h9.45v5.54h-20V46l9.7-5.72v-.08H51.05Z" transform="translate(-2.07 -1.93)"/><path d="M73.71,34.7H82.5V38h.07c1.11-2.7,3.65-3.77,6.27-3.77,5,0,6.76,2.59,6.76,6.32V53.93H86.3V42.85c0-1.1,0-2.62-1.63-2.62S83,41.75,83,42.85V53.93h-9.3Z" transform="translate(-2.07 -1.93)"/><path d="M100.07,35.36a25.07,25.07,0,0,1,8-1.11c5.32,0,11.78,1,11.78,8v11.7h-8.64V51.16h-.07a7,7,0,0,1-6.28,3.21c-3.58,0-7.05-1.62-7.05-5.65,0-5.9,5.32-7.08,9.93-7.08,1.29,0,2.77.18,3.62.25,0-2.47-2.58-2.76-4.91-2.76a15.05,15.05,0,0,0-6.42,1.62ZM111.4,45.47h-.92c-1.92,0-4.14.19-4.14,2.18,0,1.33.74,1.85,2.18,1.85,1.92,0,2.88-1.77,2.88-3.44Z" transform="translate(-2.07 -1.93)"/><path d="M122.92,34.7h8.78V38h.08c1.1-2.7,3.65-3.77,6.27-3.77,4.95,0,6.76,2.59,6.76,6.32V53.93H135.5V42.85c0-1.1,0-2.62-1.62-2.62s-1.66,1.52-1.66,2.62V53.93h-9.3Z" transform="translate(-2.07 -1.93)"/><path d="M157.65,32.67h-9.3V26.25h9.3Zm-9.3,2h9.3V53.93h-9.3Z" transform="translate(-2.07 -1.93)"/><path d="M169.28,46.54c.15,2.4,2.4,3,5.13,3a14.35,14.35,0,0,0,6.31-1.22v5a29.25,29.25,0,0,1-8.67,1.11c-7.79,0-11.92-3.77-11.92-10.41,0-6.46,4.13-9.71,11.92-9.71,7.45,0,10.08,4.65,10.08,11.15v1.14Zm4.8-4.06c0-1.47-.22-3.8-2.33-3.8s-2.62,2.29-2.51,3.8Z" transform="translate(-2.07 -1.93)"/><rect class="cls-1" x="10.55" y="0.13" width="20.29" height="3.57"/><path class="cls-1" d="M22.9,54.85a20.82,20.82,0,0,1-8.8-39.69V1.93H31.69V15.16A20.82,20.82,0,0,1,22.9,54.85ZM17.67,5.5v12L16.54,18a17.26,17.26,0,1,0,12.71,0l-1.12-.45V5.5Z" transform="translate(-2.07 -1.93)"/><path class="cls-2" d="M23.5,20.61h0l-.08,27.57h.08a13.79,13.79,0,0,0,0-27.57Z" transform="translate(-2.07 -1.93)"/><circle class="cls-3" cx="29.88" cy="30.96" r="1.42"/><circle class="cls-3" cx="25.96" cy="24.2" r="1.78"/><circle class="cls-3" cx="26.43" cy="38.88" r="2.09"/><path class="cls-1" d="M22,20.72h0l.09,27.58H22a4.89,4.89,0,0,1-2.69-.52,2.69,2.69,0,0,1-1-1.47,4.61,4.61,0,0,1-5.83-.9,4,4,0,0,1-.59-3.1s-4.4-1.63-4.4-7.94a8.49,8.49,0,0,1,4.73-7.62,4.07,4.07,0,0,1,1.81-4c1.32-.94,3.71-.44,3.71-.44a2.6,2.6,0,0,1,1.84-1.58A3.59,3.59,0,0,1,22,20.72Z" transform="translate(-2.07 -1.93)"/></svg>