<?xml version="1.0" encoding="UTF-8"?>
<!DOCTYPE svg PUBLIC "-//W3C//DTD SVG 1.1//EN" "http://www.w3.org/Graphics/SVG/1.1/DTD/svg11.dtd">
<svg version="1.1" xmlns="http://www.w3.org/2000/svg" xmlns:xlink="http://www.w3.org/1999/xlink" x="0" y="0" width="156.953" height="42.024" viewBox="0, 0, 156.953, 42.024">
    <g id="Слой_1" transform="translate(-0, -0)">
        <g>
            <path d="M55.233,25.35 L62.679,25.35 L62.679,28.165 L62.74,28.165 C63.68,25.882 65.838,24.974 68.059,24.974 C72.251,24.974 73.784,27.165 73.784,30.324 L73.784,41.648 L65.9,41.648 L65.9,32.263 C65.9,31.325 65.9,30.042 64.525,30.042 C63.116,30.042 63.116,31.325 63.116,32.263 L63.116,41.648 L55.233,41.648 z" fill="#1A1919"/>
            <path d="M85.688,34.485 L84.906,34.485 C83.28,34.485 81.403,34.641 81.403,36.33 C81.403,37.457 82.029,37.894 83.249,37.894 C84.875,37.894 85.688,36.393 85.688,34.984 z M76.085,25.913 C78.431,25.256 79.838,24.974 82.904,24.974 C87.41,24.974 92.883,25.788 92.883,31.731 L92.883,41.648 L85.563,41.648 L85.563,39.303 L85.501,39.303 C84.406,41.147 82.404,42.024 80.183,42.024 C77.149,42.024 74.207,40.648 74.207,37.238 C74.207,32.233 78.712,31.231 82.623,31.231 C83.718,31.231 84.969,31.388 85.688,31.451 C85.657,29.354 83.498,29.103 81.528,29.103 C79.651,29.103 77.649,29.699 76.085,30.481 z" fill="#1A1919"/>
            <path d="M94.357,25.35 L101.803,25.35 L101.803,28.165 L101.866,28.165 C102.804,25.882 104.963,24.974 107.184,24.974 C111.375,24.974 112.908,27.165 112.908,30.324 L112.908,41.648 L105.025,41.648 L105.025,32.263 C105.025,31.325 105.025,30.042 103.649,30.042 C102.241,30.042 102.241,31.325 102.241,32.263 L102.241,41.648 L94.357,41.648 z" fill="#1A1919"/>
            <path d="M114.4,25.349 L122.283,25.349 L122.283,41.648 L114.4,41.648 z" fill="#1A1919"/>
            <path d="M135.4,31.951 C135.4,30.699 135.212,28.728 133.429,28.728 C131.615,28.728 131.208,30.668 131.302,31.951 z M131.333,35.392 C131.459,37.425 133.367,37.894 135.681,37.894 C137.84,37.894 139.78,37.519 141.031,36.862 L141.031,41.086 C138.935,41.742 136.432,42.024 133.679,42.024 C127.079,42.024 123.575,38.832 123.575,33.202 C123.575,27.727 127.079,24.974 133.679,24.974 C139.998,24.974 142.22,28.917 142.22,34.422 L142.22,35.392 z" fill="#1A1919"/>
            <path d="M42.934,12.045 C44.654,12.045 44.936,13.858 44.936,15.579 C44.936,17.3 44.654,18.957 42.995,18.957 C41.244,18.957 40.993,17.3 40.993,15.391 C40.993,13.858 41.244,12.045 42.934,12.045 M42.139,36.956 L53.022,31.888 L53.022,25.35 L41.212,25.35 L41.212,21.367 L41.275,21.367 C42.495,23.119 44.091,23.838 46.187,23.838 C51.099,23.838 53.131,19.99 53.131,15.579 C53.131,10.855 51.192,6.788 45.968,6.788 C43.403,6.788 41.807,7.696 40.712,10.136 L40.649,10.136 L40.649,7.164 L33.329,7.164 L33.329,30.032 L43.285,30.105 L33.329,34.953 L33.329,41.649 L53.241,41.649 L53.241,36.956 z" fill="#1A1919"/>
            <path d="M55.233,0 L63.116,0 L63.116,9.198 L63.179,9.198 C63.93,7.884 65.837,6.788 68.058,6.788 C72.251,6.788 73.784,8.979 73.784,12.138 L73.784,23.463 L65.9,23.463 L65.9,14.078 C65.9,13.139 65.9,11.856 64.523,11.856 C63.116,11.856 63.116,13.139 63.116,14.078 L63.116,23.463 L55.233,23.463 z" fill="#1A1919"/>
            <path d="M87.178,16.299 L86.396,16.299 C84.77,16.299 82.893,16.455 82.893,18.144 C82.893,19.271 83.518,19.708 84.738,19.708 C86.365,19.708 87.178,18.207 87.178,16.799 z M77.573,7.727 C79.921,7.07 81.328,6.788 84.394,6.788 C88.899,6.788 94.373,7.602 94.373,13.546 L94.373,23.463 L87.053,23.463 L87.053,21.117 L86.991,21.117 C85.896,22.962 83.894,23.838 81.673,23.838 C78.638,23.838 75.697,22.462 75.697,19.052 C75.697,14.047 80.202,13.046 84.112,13.046 C85.208,13.046 86.459,13.202 87.178,13.265 C87.147,11.168 84.988,10.918 83.017,10.918 C81.141,10.918 79.139,11.513 77.573,12.295 z" fill="#1A1919"/>
            <path d="M104.452,7.164 L104.452,10.855 L104.515,10.855 C105.453,8.54 107.018,6.788 109.489,6.788 C109.958,6.788 110.458,6.851 110.771,6.944 L110.771,13.483 C110.395,13.326 109.707,13.233 108.988,13.233 C106.798,13.233 104.953,15.141 104.953,17.55 L104.953,23.463 L97.069,23.463 L97.069,7.164 z" fill="#1A1919"/>
            <path d="M112.496,7.164 L119.941,7.164 L119.941,9.98 L120.004,9.98 C120.942,7.696 123.101,6.788 125.572,6.788 C127.763,6.788 130.045,7.633 130.671,9.573 L130.734,9.573 C131.266,7.696 134.019,6.788 135.958,6.788 C141.714,6.788 141.714,10.512 141.714,13.702 L141.714,23.463 L133.832,23.463 L133.832,14.078 C133.832,13.139 133.832,11.856 132.423,11.856 C131.046,11.856 131.046,13.139 131.046,14.078 L131.046,23.463 L123.164,23.463 L123.164,14.078 C123.164,13.139 123.164,11.856 121.787,11.856 C120.38,11.856 120.38,13.139 120.38,14.078 L120.38,23.463 L112.496,23.463 z" fill="#1A1919"/>
            <path d="M8.961,38.72 L27.342,38.72 L27.342,10.042 L6.348,10.042 L8.961,13.191 z M30.324,41.701 L5.979,41.701 L5.979,14.266 L0,7.06 L30.324,7.06 z" fill="#00A3DA"/>
            <path d="M17.65,15.891 C18.888,15.891 19.091,17.197 19.091,18.436 C19.091,19.674 18.888,20.867 17.694,20.867 C16.433,20.867 16.253,19.674 16.253,18.3 C16.253,17.197 16.433,15.891 17.65,15.891 M17.077,33.823 L24.911,30.175 L24.911,25.468 L16.411,25.468 L16.411,22.602 L16.456,22.602 C17.334,23.863 18.483,24.38 19.991,24.38 C23.527,24.38 24.99,21.611 24.99,18.436 C24.99,15.035 23.594,12.108 19.834,12.108 C17.987,12.108 16.839,12.761 16.051,14.518 L16.005,14.518 L16.005,12.378 L10.736,12.378 L10.736,28.891 L17.903,28.891 L10.736,32.382 L10.736,37.201 L25.069,37.201 L25.069,33.823 z" fill="#00A3DA"/>
            <path d="M149.488,7.354 L149.488,8.629 L147.927,8.629 L147.927,12.728 L146.245,12.728 L146.245,8.629 L144.685,8.629 L144.685,7.354 z" fill="#1A1919"/>
            <path d="M150.392,7.354 L152.524,7.354 L153.106,9.387 C153.194,9.706 153.348,10.256 153.458,10.739 L153.491,10.739 C153.59,10.366 153.766,9.783 153.92,9.266 L154.513,7.354 L156.623,7.354 L156.953,12.728 L155.403,12.728 L155.315,10.574 C155.305,10.113 155.272,9.332 155.26,8.695 L155.227,8.695 C155.019,9.409 154.986,9.585 154.711,10.453 L153.996,12.64 L152.776,12.64 L152.139,10.508 C151.996,9.992 151.82,9.233 151.699,8.728 L151.655,8.728 C151.633,9.399 151.623,10.157 151.6,10.607 L151.513,12.728 L150.018,12.728 z" fill="#1A1919"/>
        </g>
    </g>
</svg>
