<?xml version="1.0"?>
<svg xmlns="http://www.w3.org/2000/svg" height="512px" viewBox="0 -18 509.226 509" width="512px"><path d="m489.007812.195312h-17.609374c-5.519532 0-9.996094 4.476563-9.996094 9.996094 0 5.519532 4.476562 9.992188 9.996094 9.992188h17.609374v325.40625h-469.015624v-325.40625h370.941406c5.519531 0 9.996094-4.472656 9.996094-9.992188 0-5.519531-4.476563-9.996094-9.996094-9.996094h-370.941406c-11.023438 0-19.992188 8.964844-19.992188 19.988282v325.40625c0 11.023437 8.96875 19.992187 19.992188 19.992187h154.292968l-28.519531 67.792969c-2.804687 6.667969-3.015625 14-.773437 20.675781h-56.199219c-5.519531 0-9.996094 4.476563-9.996094 9.996094s4.476563 9.996094 9.996094 9.996094h82.902343c.367188.015625.734376.035156 1.101563.035156h160.105469c.367187 0 .734375-.019531 1.101562-.035156h86.203125c5.519531 0 9.992188-4.476563 9.992188-9.996094s-4.472657-9.996094-9.992188-9.996094h-59.496093c2.238281-6.671875 2.027343-14.003906-.777344-20.671875l-28.515625-67.796875h157.589843c11.023438 0 19.992188-8.96875 19.992188-19.992187v-325.40625c0-11.023438-8.96875-19.988282-19.992188-19.988282zm-148.328124 449.71875c-1.652344 2.492188-4.261719 3.964844-7.207032 4.136719h-161.246094c-2.945312-.171875-5.550781-1.644531-7.207031-4.136719-1.757812-2.648437-2.0625-5.851562-.828125-8.785156l31.777344-75.542968h113.761719l31.777343 75.542968c1.234376 2.933594.933594 6.136719-.828124 8.785156zm0 0" fill="#FFFFFF"/><path d="m68.003906 46.972656c-11.023437 0-19.992187 8.964844-19.992187 19.988282v217.660156c0 11.023437 8.96875 19.992187 19.992187 19.992187h372.992188c11.023437 0 19.992187-8.96875 19.992187-19.992187v-217.660156c0-11.023438-8.96875-19.988282-19.992187-19.988282zm372.992188 237.648438h-372.992188v-217.660156h372.992188l.011718 217.660156s-.003906 0-.011718 0zm0 0" fill="#FFFFFF"/><path d="m292.347656 385.117188c-2.46875-5.195313-7.785156-8.550782-13.539062-8.550782h-51.914063c-5.753906 0-11.070312 3.355469-13.539062 8.550782l-10.929688 22.960937c-3.363281 7.070313-2.875 15.246094 1.308594 21.867187 4.179687 6.621094 11.351563 10.574219 19.183594 10.574219h59.867187c7.828125 0 15-3.953125 19.183594-10.574219 4.183594-6.621093 4.667969-14.792968 1.304688-21.867187zm-7.28125 34.152343c-.363281.574219-1.054687 1.257813-2.285156 1.257813h-59.863281c-1.230469 0-1.921875-.683594-2.285157-1.257813-.359374-.574219-.683593-1.492187-.152343-2.601562l9.570312-20.113281h45.601563l9.570312 20.113281c.527344 1.113281.203125 2.027343-.15625 2.601562zm0 0" fill="#FFFFFF"/><path d="m67.398438 320.898438c-1.824219-5.132813-7.632813-7.898438-12.765626-6.074219-5.132812 1.820312-7.898437 7.628906-6.074218 12.765625l.0625.171875c1.914062 5.390625 8.171875 8.101562 13.421875 5.8125 4.746093-2.070313 7.148437-7.625 5.414062-12.503907zm0 0" fill="#FFFFFF"/><path d="m440.414062 314.824219c-5.203124 1.847656-7.921874 7.558593-6.074218 12.765625l.058594.171875c1.914062 5.390625 8.171874 8.101562 13.421874 5.8125 4.746094-2.070313 7.148438-7.625 5.417969-12.503907l-.0625-.171874c-1.847656-5.203126-7.5625-7.921876-12.761719-6.074219-5.203124 1.847656 5.199219-1.847657 0 0zm0 0" fill="#FFFFFF"/><path d="m408.105469 314.816406c-5.207031 1.832032-7.941407 7.539063-6.109375 12.746094l.0625.171875c1.902344 5.398437 8.152344 8.125 13.40625 5.847656 4.753906-2.058593 7.167968-7.605469 5.449218-12.488281l-.0625-.171875c-1.832031-5.207031-7.539062-7.945313-12.746093-6.105469-5.207031 1.832032 5.207031-1.839844 0 0zm0 0" fill="#FFFFFF"/><path d="m96.898438 314.417969c-5.519532 0-9.996094 4.476562-9.996094 9.996093 0 5.519532 4.476562 9.996094 9.996094 9.996094h49.289062c5.519531 0 9.992188-4.476562 9.992188-9.996094 0-5.519531-4.472657-9.996093-9.992188-9.996093zm0 0" fill="#FFFFFF"/><path d="m421.714844 13.597656c1.449218 4.105469 5.308594 6.675782 9.429687 6.675782 1.101563 0 2.222657-.183594 3.320313-.570313 5.207031-1.832031 7.941406-7.542969 6.105468-12.75l-.058593-.171875c-1.835938-5.203125-7.539063-7.941406-12.75-6.105469-5.207031 1.835938-7.941407 7.542969-6.105469 12.75zm0 0" fill="#FFFFFF"/><path d="m329.21875 170.386719c-5.519531 0-9.996094 4.476562-9.996094 9.996093 0 36.34375-29.566406 65.910157-65.910156 65.910157s-65.910156-29.566407-65.910156-65.910157 29.566406-65.910156 65.910156-65.910156c8.535156 0 16.882812 1.660156 24.644531 4.789063l-9.734375 1.667969c-5.441406.929687-9.097656 6.09375-8.167968 11.535156.832031 4.871094 5.0625 8.3125 9.839843 8.3125.5625 0 1.128907-.046875 1.699219-.144532l35.421875-6.0625c2.667969-.453124 5.039063-1.976562 6.566406-4.210937 1.53125-2.234375 2.085938-4.996094 1.539063-7.648437l-7.058594-34.421876c-1.109375-5.410156-6.394531-8.898437-11.800781-7.785156-5.40625 1.109375-8.890625 6.390625-7.78125 11.800782l2.199219 10.730468c-11.550782-5.585937-24.296876-8.554687-37.367188-8.554687-47.367188 0-85.902344 38.539062-85.902344 85.902343 0 47.367188 38.535156 85.902344 85.902344 85.902344s85.902344-38.535156 85.902344-85.902344c0-5.519531-4.476563-9.996093-9.996094-9.996093zm0 0" fill="#FFFFFF"/><path d="m234.457031 192.308594c4.566407-4.089844 10.230469-6.832032 14.519531-11.253906 4.046876-4.167969 6.765626-9.574219 6.375-15.484376-.75-11.433593-13.386718-17.054687-23.570312-14.613281-4.917969 1.179688-9.734375 4.382813-11.769531 9.148438-1.503907 3.527343-2.195313 9.601562 1.394531 12.175781 3.042969 2.179688 8.214844 1.246094 10.339844-1.753906.855468-1.203125.839844-2.355469.984375-3.753906.117187-1.117188.496093-2.152344 1.460937-2.796876 1.960938-1.3125 5.214844-.957031 6.421875 1.179688 1.441407 2.558594-.375 5.242188-2.097656 7.097656-1.613281 1.742188-3.4375 3.230469-5.332031 4.648438-2.125 1.59375-4.242188 3.199218-6.359375 4.804687-3.878907 2.941407-8.109375 7.097657-8.757813 12.167969-.335937 2.636719-.082031 5.433594-.078125 8.085938.007813 3.503906 3.441407 5.375 6.652344 5.394531 1.992187.011719 3.980469 0 5.96875 0h18.027344c.601562 0 1.203125.011719 1.804687 0 1.648438-.039063 2.90625-.945313 3.777344-2.324219 2.195312-3.476562 1.242188-10.46875-3.839844-10.554688-5.34375-.089843-10.695312 0-16.039062 0-.542969 0-1.085938 0-1.628906 0 .277343-.636718.871093-1.378906 1.746093-2.167968zm0 0" fill="#FFFFFF"/><path d="m279.746094 206.191406c3.746094 2.160156 11.734375 1.566406 11.871094-4.007812.054687-2.277344 0-4.558594 0-6.835938 1.316406 0 2.636718.132813 3.796874-.621094 1.984376-1.292968 2.957032-3.871093 2.882813-6.160156-.070313-2.089844-.886719-4.5625-2.851563-5.605468-1.179687-.625-2.539062-.492188-3.828124-.492188 0-3.023438.605468-6.5-2.542969-8.207031-3.808594-2.0625-11.617188-1.375-11.71875 4.167969-.023438 1.34375 0 2.695312 0 4.039062h-2.667969l12.046875-24.375c2.089844-5.070312-4.394531-8.773438-8.792969-7.402344-2.207031.683594-3.40625 2.449219-4.394531 4.382813-2.292969 4.496093-4.589844 8.992187-6.882813 13.488281-2.640624 5.171875-5.277343 10.34375-7.917968 15.515625-.546875 1.070313-1.105469 2.132813-1.640625 3.210937-1.902344 3.851563.21875 8.03125 4.664062 8.058594 5.195313.035156 10.390625 0 15.585938 0v5.140625c0 2.308594.121093 4.398438 2.390625 5.703125zm0 0" fill="#FFFFFF"/></svg>
